<?xml version="1.0" standalone="no"?>
<!DOCTYPE svg PUBLIC "-//W3C//DTD SVG 20010904//EN"
 "http://www.w3.org/TR/2001/REC-SVG-20010904/DTD/svg10.dtd">
<svg version="1.0" xmlns="http://www.w3.org/2000/svg"
 width="512.000000pt" height="512.000000pt" viewBox="0 0 512.000000 512.000000"
 preserveAspectRatio="xMidYMid meet">

<g transform="translate(0.000000,512.000000) scale(0.100000,-0.100000)"
fill="#000000" stroke="none">
<path d="M1078 5103 c-60 -20 -120 -71 -156 -131 l-27 -47 -3 -331 -3 -332
-37 -7 c-80 -14 -156 -77 -194 -160 -21 -47 -23 -66 -26 -291 -4 -268 6 -391
39 -456 12 -24 61 -95 109 -159 69 -92 90 -128 99 -168 8 -37 11 -462 11
-1437 0 -1504 -3 -1412 54 -1487 14 -19 50 -47 78 -63 l53 -29 604 -3 c665 -3
658 -3 733 58 20 17 49 56 65 88 l28 57 0 418 0 419 -28 24 c-34 29 -67 31
-98 5 l-24 -19 -5 -420 c-5 -453 -3 -438 -61 -468 -23 -12 -120 -14 -581 -14
-357 0 -566 4 -591 11 -26 7 -44 21 -57 42 -19 31 -20 62 -20 1348 l0 1317 63
-62 c68 -67 159 -117 245 -135 29 -6 121 -11 203 -11 l151 0 30 30 c24 25 29
36 23 58 -3 15 -15 36 -26 47 -18 18 -37 20 -197 25 -249 7 -245 5 -454 250
-166 194 -266 328 -278 370 -5 19 -10 159 -10 311 0 381 -22 359 365 359 285
0 310 -4 345 -62 41 -68 14 -165 -55 -194 -25 -10 -78 -14 -198 -14 -158 0
-164 -1 -185 -23 -28 -30 -29 -80 -2 -107 17 -17 33 -20 100 -20 l80 0 0 -94
c0 -90 -1 -96 -26 -115 -20 -15 -41 -21 -81 -21 -44 0 -58 -5 -78 -25 -31 -30
-32 -73 -5 -103 27 -29 60 -36 127 -28 96 11 163 59 202 146 16 35 21 66 21
143 l0 97 28 0 c41 0 146 55 178 93 73 86 90 200 49 310 -5 11 8 22 47 40 29
13 64 33 78 44 l24 21 36 -29 c98 -79 252 -78 352 1 31 25 38 27 48 15 7 -8
39 -28 73 -45 69 -34 146 -40 216 -15 l41 14 0 -130 c0 -126 1 -131 26 -156
20 -20 31 -24 57 -19 70 13 67 -8 67 556 l0 507 -31 61 c-16 34 -44 73 -61 87
-108 91 -254 98 -363 16 l-38 -28 -49 33 c-108 73 -218 73 -326 0 l-50 -33
-29 23 c-39 33 -126 64 -176 64 -61 0 -109 -16 -167 -55 l-52 -35 -37 31 c-71
56 -172 72 -263 42z m165 -155 c10 -5 27 -24 37 -41 19 -30 20 -53 20 -339 l0
-308 -130 0 -130 0 0 300 c0 318 2 331 48 373 39 35 105 42 155 15z m424 -4
c56 -35 58 -47 58 -329 0 -232 -2 -264 -18 -288 -31 -48 -62 -61 -158 -65
l-89 -4 0 296 c0 314 3 340 48 380 40 35 111 40 159 10z m423 -3 c55 -39 60
-65 60 -326 0 -263 -4 -286 -62 -328 -52 -38 -148 -17 -185 40 -16 23 -18 58
-21 253 -2 124 -1 244 3 268 15 100 125 150 205 93z m418 3 c13 -8 32 -29 42
-47 18 -29 20 -52 20 -282 0 -230 -2 -253 -20 -282 -39 -64 -111 -84 -178 -49
-63 32 -67 53 -67 326 0 266 5 294 54 329 46 33 103 35 149 5z"/>
<path d="M2425 3691 c-190 -54 -334 -193 -402 -386 l-28 -80 0 -960 c0 -917 1
-962 19 -995 58 -109 163 -157 272 -125 57 16 64 22 215 181 73 76 155 124
247 143 35 7 244 11 625 11 621 0 648 2 768 56 119 53 222 153 280 269 62 127
62 119 66 712 5 563 -1 696 -34 794 -56 167 -193 305 -364 367 -72 26 -82 27
-336 30 l-262 4 -26 -26 c-30 -30 -33 -78 -6 -105 17 -17 41 -19 267 -24 280
-5 310 -10 412 -76 71 -47 141 -135 169 -214 17 -48 18 -97 18 -677 l0 -625
-36 -76 c-46 -95 -116 -167 -206 -211 l-68 -33 -635 -6 c-704 -6 -674 -4 -820
-75 -56 -28 -99 -61 -172 -132 l-98 -95 0 921 c0 634 3 938 11 974 23 109 105
238 192 300 32 23 36 23 411 28 l379 5 20 27 c23 30 18 67 -13 98 -19 19 -35
20 -412 19 -341 0 -401 -3 -453 -18z"/>
<path d="M2362 2973 c-7 -3 -19 -18 -27 -33 -12 -24 -15 -86 -15 -345 0 -322
2 -344 39 -372 11 -8 61 -12 152 -13 194 0 256 26 314 131 49 90 38 183 -31
276 -22 30 -23 33 -9 67 45 108 -20 246 -134 285 -33 11 -263 14 -289 4z m260
-170 c22 -20 23 -61 1 -85 -12 -14 -31 -18 -80 -18 l-63 0 0 60 0 60 62 0 c43
0 67 -5 80 -17z m44 -287 c21 -18 28 -32 28 -61 0 -29 -7 -43 -28 -61 -24 -21
-37 -24 -107 -24 l-79 0 0 85 0 85 79 0 c70 0 83 -3 107 -24z"/>
<path d="M2955 2955 l-25 -24 0 -336 0 -336 25 -24 c23 -24 29 -25 158 -25
121 0 137 2 161 21 35 28 36 80 1 114 -22 22 -32 25 -104 25 l-80 0 -3 286 -3
286 -24 19 c-32 26 -77 24 -106 -6z"/>
<path d="M3495 2958 c-24 -21 -30 -46 -81 -328 -31 -168 -56 -320 -56 -338 0
-60 51 -91 111 -66 35 15 39 28 72 214 12 69 25 131 29 138 4 8 14 -13 24 -50
9 -35 33 -114 52 -175 30 -98 38 -115 64 -128 41 -21 75 -19 105 8 20 17 35
57 74 191 26 93 50 165 53 160 3 -5 18 -78 34 -163 32 -175 47 -204 104 -204
35 0 80 39 80 69 0 24 -110 595 -121 631 -21 67 -99 85 -148 36 -21 -22 -37
-68 -80 -222 l-54 -195 -59 200 c-65 219 -79 244 -143 244 -21 0 -44 -9 -60
-22z"/>
</g>
</svg>
